<svg xmlns="http://www.w3.org/2000/svg" viewBox="0 0 180 180"><path fill="#522d1c" d="M0 0h180v180H0Zm80.74 153.5c7.21 1.82 16.54 1.24 24.97-1.57 11.29-3.76 19.37-14.1 18.05-23.11-.23-1.55-.13-2.82.23-2.82 1.71 0 5.84 5.93 6.43 9.23 1.07 6.03 10.55 11.92 13.49 8.37 3.1-3.73-4.02-13.6-9.8-13.6-1.73 0-3.79-1.1-5.61-3l-2.87-3h3.62c8.05 0 15.13-5.27 19.79-14.74 2.65-5.37 3.32-8.09 3.72-15.15.61-10.73-.9-18.27-5.05-25.19-4.17-6.95-10.01-11.05-16.62-11.69l-5.05-.48 2.05-2.88c1.31-1.84 2.94-2.87 4.53-2.87 5.85 0 11.14-5.09 11.62-11.2.25-3.22.17-3.3-3.55-3.18-4.68.15-9.39 4.25-10.27 8.95-.34 1.8-2.14 4.69-4.09 6.57l-3.49 3.36.66-3.59c1.62-8.76-3.61-16.87-14.23-22.1-17.36-8.54-44.22-2.22-50.45 11.87-1.26 2.84-1.87 5.99-1.64 8.43.21 2.14.16 3.89-.1 3.89-1.56 0-6.08-5.76-6.08-7.75 0-3.46-1.53-5.8-5.36-8.16-4.13-2.55-7.26-2.67-8.51-.33C34.95 41.83 42.4 51 47.89 51c1.7 0 3.77 1.08 5.47 2.86l2.74 2.85-5.75.59c-6.53.68-12.42 4.19-16.05 9.58-11.86 17.6-7.34 46.38 8.61 54.79 2.5 1.32 6.15 2.33 8.43 2.33h4.03l-2.76 2.88c-1.67 1.75-4.24 3.13-6.49 3.49-5.46.87-11.07 7.98-9.51 12.04 2.18 5.7 14.39-1.39 14.39-8.36 0-2.27 4.37-8.05 6.08-8.05.26 0 .3 1.79.09 3.97-.96 10.11 8.72 19.77 23.57 23.53m23.79-3.52c-12.39 4.12-22.75 3.29-33.76-2.7-11.53-6.28-15.06-17.78-8.01-26.12 3.46-4.1 9.27-5.35 12.26-2.64 3.62 3.27 2.49 6.02-2.27 5.53-2.3-.23-2.27 1.58.04 2.18 3.63.95 6.21-.94 6.21-4.54 0-2.8-.57-3.68-3.33-5.17-1.97-1.06-4.58-1.61-6.36-1.35-2.99.44-3.02.41-2.57-3.61.63-5.58-2.58-9.8-7.11-9.36-2.83.27-3.16.66-3.44 4.05-.19 2.29.13 3.75.81 3.75.62 0 1.05-.79.95-1.75-.35-3.42.08-4.25 2.19-4.25 2.58 0 4.78 2.65 4.83 5.8.08 6.13-7.04 12.2-14.32 12.2-7.62 0-16.63-9.32-19.72-20.39-1.9-6.84-1.38-19.41 1.08-25.95 3.7-9.82 12.01-16.63 20.34-16.65 3.34-.01 8.85 3.27 10.76 6.41 2.56 4.19 2.38 7.78-.54 10.51-2.91 2.73-4.57 2.01-4.57-1.99 0-3.22-1.49-3.99-2.23-1.15-1.19 4.55 3.13 8.41 7.06 6.3 2.67-1.43 4.53-6.5 3.87-10.55l-.56-3.43 3.89.16c5.18.2 9.2-3.34 8.77-7.74-.25-2.51-.79-3.09-3.17-3.36-1.58-.18-3.36.16-3.95.75-.77.77-.17 1.08 2.12 1.08 3.73 0 4.4 2.6 1.37 5.35-4.19 3.79-11.37.97-14.54-5.72-3.57-7.53-.58-15.78 7.73-21.37 6.78-4.55 11.66-5.76 23.14-5.76 8.92 0 10.68.32 16.28 2.9 14.04 6.48 18.14 19.05 9.31 28.51-3.55 3.8-8.93 4.25-12.15 1.03-2.71-2.71-2.04-4.37 1.91-4.75 3.89-.39 3.17-2.19-.87-2.19-6.22 0-5.8 7.43.57 10.46 2.47 1.17 3.94 1.3 5.93.55 3.48-1.32 4.18-1.27 2.72.19-1.55 1.55-1.5 8.83.08 10.89 4.02 5.22 9.72 4.27 9.72-1.63 0-1.9-.45-3.46-1-3.46s-1 1.32-1 2.94c0 4-1.66 4.72-4.57 1.99-5.74-5.39-.63-15.03 8.7-16.43 8.64-1.29 15.75 3.5 20.53 13.85 2.58 5.59 2.84 7.16 2.84 17.25 0 10.71-.12 11.34-3.5 17.96-5.84 11.44-15.1 15.98-23.67 11.61-2.22-1.13-4.77-3.19-5.68-4.58-3.17-4.85-1.5-11.59 2.89-11.59 2.07 0 2.46.48 2.46 3 0 1.65.48 3 1.06 3 .61 0 .93-1.58.75-3.75-.28-3.41-.6-3.78-3.5-4.06-4.64-.45-7.31 2.58-7.31 8.31 0 4.32-.12 4.5-2.95 4.5-8.57 0-13.56 8.33-6.58 10.99 2.71 1.03 5.53.41 5.53-1.21 0-.56-.84-.79-1.86-.53-2.04.54-5.14-.83-5.14-2.26 0-1.89 4.49-4.99 7.22-4.99 3.94 0 7.54 2.6 9.84 7.11 2.41 4.73 2.42 8.23.05 13.46-2.45 5.4-8.18 9.96-15.58 12.41m-26.24-40.6c-.43 2.84-.26 3.78.65 3.47.75-.25 1.41-3.09 1.7-7.35.25-3.81.64-7.11.85-7.32s2 2.83 3.98 6.76c1.98 3.92 3.98 6.9 4.45 6.61s2.13-3.46 3.69-7.04S96.79 98 97.22 98s.85 2.59.93 5.75c.25 9.29.51 9.98 3.42 8.86 1.18-.45 1.36-.99.64-1.87-.56-.68-1.5-5.24-2.09-10.14-.6-4.89-1.31-9.12-1.58-9.39s-2.14 3.17-4.16 7.65-3.96 8.14-4.32 8.14-2.41-3.6-4.56-8-4.2-8-4.57-8-.98 3.26-1.36 7.25-.95 9-1.28 11.13m7.38-25.05c1.46 1.46 6.35.57 8.29-1.52 3.03-3.25 2.5-5.95-2-10.35-4.55-4.44-4.9-7.5-.96-8.53 2.06-.54 2.21-.78.83-1.37-2.2-.94-6.83 2.13-6.83 4.52 0 1.02 2.03 4.13 4.5 6.92s4.5 5.43 4.5 5.88c0 .44-.89 1.61-1.97 2.6-1.85 1.67-2.14 1.68-4.5.13-1.98-1.3-2.53-1.36-2.53-.3 0 .75.3 1.66.67 2.02"/><path fill="#b19c8f" d="M88.39 65.86c.01-.04.01-.09.02-.13.5-2.51.36-2.68-1.42-1.73 1.53-1.2 3.58-1.98 4.84-1.44 1.38.59 1.23.83-.83 1.37-1.45.38-2.32 1.03-2.61 1.93m3.57 6.6c2.86 2.79 4.11 4.9 3.88 6.9.23-2-1.03-4.11-3.91-6.91-2.79-2.72-3.69-3.99-3.64-5.66.1 1.46 1.33 3.38 3.67 5.67m-6.81-6.15c-.11.88.21 1.94.97 3.25-.7-1.11-1.12-2.01-1.12-2.48 0-.25.05-.51.15-.77m10.69 13.05c-.14 1.14-.76 2.25-1.86 3.43 1.1-1.18 1.72-2.29 1.86-3.43"/><path fill="#faefe6" d="M80.74 153.5c-14.85-3.76-24.53-13.42-23.57-23.53.21-2.18.17-3.97-.09-3.97-1.71 0-6.08 5.78-6.08 8.05 0 6.97-12.21 14.06-14.39 8.36-1.56-4.06 4.05-11.17 9.51-12.04 2.25-.36 4.82-1.74 6.49-3.49l2.76-2.88h-4.03c-2.28 0-5.93-1.01-8.43-2.33-15.95-8.41-20.47-37.19-8.61-54.79 3.63-5.39 9.52-8.9 16.05-9.58l5.75-.59-2.74-2.85c-1.7-1.78-3.77-2.86-5.47-2.86-5.49 0-12.94-9.17-10.76-13.24 1.25-2.34 4.38-2.22 8.51.33 3.83 2.36 5.36 4.7 5.36 8.16 0 1.99 4.52 7.75 6.08 7.75.26 0 .31-1.75.1-3.89-.23-2.44.38-5.59 1.64-8.43 6.23-14.09 33.09-20.41 50.45-11.87 10.62 5.23 15.85 13.34 14.23 22.1l-.66 3.59 3.49-3.36c1.95-1.88 3.75-4.77 4.09-6.57.88-4.7 5.59-8.8 10.27-8.95 3.72-.12 3.8-.04 3.55 3.18-.48 6.11-5.77 11.2-11.62 11.2-1.59 0-3.22 1.03-4.53 2.87l-2.05 2.88 5.05.48c6.61.64 12.45 4.74 16.62 11.69 4.15 6.92 5.66 14.46 5.05 25.19-.4 7.06-1.07 9.78-3.72 15.15-4.66 9.47-11.74 14.74-19.79 14.74h-3.62l2.87 3c1.82 1.9 3.88 3 5.61 3 5.78 0 12.9 9.87 9.8 13.6-2.94 3.55-12.42-2.34-13.49-8.37-.59-3.3-4.72-9.23-6.43-9.23-.36 0-.46 1.27-.23 2.82 1.32 9.01-6.76 19.35-18.05 23.11-8.43 2.81-17.76 3.39-24.97 1.57m23.79-3.52c7.4-2.45 13.13-7.01 15.58-12.41 2.37-5.23 2.36-8.73-.05-13.46-2.3-4.51-5.9-7.11-9.84-7.11-2.73 0-7.22 3.1-7.22 4.99 0 1.43 3.1 2.8 5.14 2.26 1.02-.26 1.86-.03 1.86.53 0 1.62-2.82 2.24-5.53 1.21-6.98-2.66-1.99-10.99 6.58-10.99 2.83 0 2.95-.18 2.95-4.5 0-5.73 2.67-8.76 7.31-8.31 2.9.28 3.22.65 3.5 4.06.18 2.17-.14 3.75-.75 3.75-.58 0-1.06-1.35-1.06-3 0-2.52-.39-3-2.46-3-4.39 0-6.06 6.74-2.89 11.59.91 1.39 3.46 3.45 5.68 4.58 8.57 4.37 17.83-.17 23.67-11.61 3.38-6.62 3.5-7.25 3.5-17.96 0-10.09-.26-11.66-2.84-17.25-4.78-10.35-11.89-15.14-20.53-13.85-9.33 1.4-14.44 11.04-8.7 16.43 2.91 2.73 4.57 2.01 4.57-1.99 0-1.62.45-2.94 1-2.94s1 1.56 1 3.46c0 5.9-5.7 6.85-9.72 1.63-1.58-2.06-1.63-9.34-.08-10.89 1.46-1.46.76-1.51-2.72-.19-1.99.75-3.46.62-5.93-.55-6.37-3.03-6.79-10.46-.57-10.46 4.04 0 4.76 1.8.87 2.19-3.95.38-4.62 2.04-1.91 4.75 3.22 3.22 8.6 2.77 12.15-1.03 8.83-9.46 4.73-22.03-9.31-28.51-5.6-2.58-7.36-2.9-16.28-2.9-11.48 0-16.36 1.21-23.14 5.76-8.31 5.59-11.3 13.84-7.73 21.37 3.17 6.69 10.35 9.51 14.54 5.72C78.2 58.6 77.53 56 73.8 56c-2.29 0-2.89-.31-2.12-1.08.59-.59 2.37-.93 3.95-.75 2.38.27 2.92.85 3.17 3.36.43 4.4-3.59 7.94-8.77 7.74l-3.89-.16.56 3.43c.66 4.05-1.2 9.12-3.87 10.55-3.93 2.11-8.25-1.75-7.06-6.3.74-2.84 2.23-2.07 2.23 1.15 0 4 1.66 4.72 4.57 1.99 2.92-2.73 3.1-6.32.54-10.51-1.91-3.14-7.42-6.42-10.76-6.41-8.33.02-16.64 6.83-20.34 16.65-2.46 6.54-2.98 19.11-1.08 25.95C34.02 112.68 43.03 122 50.65 122c7.28 0 14.4-6.07 14.32-12.2-.05-3.15-2.25-5.8-4.83-5.8-2.11 0-2.54.83-2.19 4.25.1.96-.33 1.75-.95 1.75-.68 0-1-1.46-.81-3.75.28-3.39.61-3.78 3.44-4.05 4.53-.44 7.74 3.78 7.11 9.36-.45 4.02-.42 4.05 2.57 3.61 1.78-.26 4.39.29 6.36 1.35 2.76 1.49 3.33 2.37 3.33 5.17 0 3.6-2.58 5.49-6.21 4.54-2.31-.6-2.34-2.41-.04-2.18 4.76.49 5.89-2.26 2.27-5.53-2.99-2.71-8.8-1.46-12.26 2.64-7.05 8.34-3.52 19.84 8.01 26.12 11.01 5.99 21.37 6.82 33.76 2.7m-26.24-40.6c.33-2.13.9-7.14 1.28-11.13S80.56 91 80.93 91s2.42 3.6 4.57 8 4.2 8 4.56 8 2.3-3.66 4.32-8.14 3.89-7.92 4.16-7.65.98 4.5 1.58 9.39c.59 4.9 1.53 9.46 2.09 10.14.72.88.54 1.42-.64 1.87-2.91 1.12-3.17.43-3.42-8.86-.08-3.16-.5-5.75-.93-5.75s-2.05 2.93-3.61 6.51-3.22 6.75-3.69 7.04-2.47-2.69-4.45-6.61c-1.98-3.93-3.77-6.97-3.98-6.76s-.6 3.51-.85 7.32c-.29 4.26-.95 7.1-1.7 7.35-.91.31-1.08-.63-.65-3.47m7.38-25.05c-.37-.36-.67-1.27-.67-2.02 0-1.06.55-1 2.53.3 2.36 1.55 2.65 1.54 4.5-.13 1.08-.99 1.97-2.16 1.97-2.6 0-.45-2.03-3.09-4.5-5.88-4.89-5.5-5.6-8.34-2.52-9.99 1.79-.96 1.93-.8 1.43 1.72-.45 2.28.17 3.46 3.52 6.72 4.53 4.41 5.06 7.11 2.03 10.36-1.94 2.09-6.83 2.98-8.29 1.52"/></svg>